<svg xmlns="http://www.w3.org/2000/svg" width="500" height="300" viewBox="0 0 500 300">
  <style>
    text { font-family: Arial, sans-serif; }
    .title { font-size: 14px; font-weight: bold; }
    .actor { fill: #6a11cb; }
    .lifeline { stroke: #2575fc; stroke-width: 1; stroke-dasharray: 5,5; }
    .message { stroke: #333; stroke-width: 1; marker-end: url(#arrow); }
    .note { fill: #fff0c0; stroke: #333; stroke-width: 1; }
  </style>
  
  <defs>
    <marker id="arrow" markerWidth="10" markerHeight="10" refX="9" refY="3" orient="auto" markerUnits="strokeWidth">
      <path d="M0,0 L0,6 L9,3 z" fill="#333" />
    </marker>
  </defs>
  
  <rect width="100%" height="100%" fill="white"/>
  
  <!-- Заголовок -->
  <text x="10" y="20" class="title">Диаграмма последовательности</text>
  
  <!-- Актёры -->
  <rect x="50" y="40" width="80" height="40" rx="5" class="actor" opacity="0.8"/>
  <text x="90" y="65" text-anchor="middle" fill="white">Пользователь</text>
  
  <rect x="200" y="40" width="80" height="40" rx="5" class="actor" opacity="0.8"/>
  <text x="240" y="65" text-anchor="middle" fill="white">Веб-приложение</text>
  
  <rect x="350" y="40" width="80" height="40" rx="5" class="actor" opacity="0.8"/>
  <text x="390" y="65" text-anchor="middle" fill="white">Kroki API</text>
  
  <!-- Линии жизни -->
  <line x1="90" y1="80" x2="90" y2="250" class="lifeline" />
  <line x1="240" y1="80" x2="240" y2="250" class="lifeline" />
  <line x1="390" y1="80" x2="390" y2="250" class="lifeline" />
  
  <!-- Сообщения -->
  <line x1="90" y1="100" x2="240" y2="100" class="message" />
  <text x="165" y="95" text-anchor="middle" font-size="12">Ввод кода диаграммы</text>
  
  <line x1="240" y1="130" x2="240" y2="150" class="message" />
  <text x="280" y="140" text-anchor="start" font-size="12">Кодирование в base64</text>
  
  <line x1="240" y1="170" x2="390" y2="170" class="message" />
  <text x="315" y="165" text-anchor="middle" font-size="12">Запрос к API</text>
  
  <line x1="390" y1="190" x2="390" y2="210" class="message" />
  <text x="430" y="200" text-anchor="start" font-size="12">Генерация изображения</text>
  
  <line x1="390" y1="220" x2="240" y2="220" class="message" stroke-dasharray="5,5" />
  <text x="315" y="215" text-anchor="middle" font-size="12">Ответ с изображением</text>
  
  <line x1="240" y1="240" x2="90" y2="240" class="message" stroke-dasharray="5,5" />
  <text x="165" y="235" text-anchor="middle" font-size="12">Отображение результата</text>
  
  <!-- Нижние актёры -->
  <rect x="50" y="250" width="80" height="40" rx="5" class="actor" opacity="0.8"/>
  <text x="90" y="275" text-anchor="middle" fill="white">Пользователь</text>
  
  <rect x="200" y="250" width="80" height="40" rx="5" class="actor" opacity="0.8"/>
  <text x="240" y="275" text-anchor="middle" fill="white">Веб-приложение</text>
  
  <rect x="350" y="250" width="80" height="40" rx="5" class="actor" opacity="0.8"/>
  <text x="390" y="275" text-anchor="middle" fill="white">Kroki API</text>
</svg>